# xmcd
#
# Track frame offsets:
#	150
#	19205
#	34730
#	52025
#	65937
#	83617
#	97152
#	115247
#	134002
#	152430
#	169992
#	185895
#
# Disc length: 2630 seconds
#
# Revision: 0
# Processed by: cddbd v1.5.1PL0 Copyright (c) Steve Scherf et al.
# Submitted via: dBpowerAMP V4.0
#
DISCID=af0a440c
DTITLE=Various Artist - Immortal Love Songs Series 4
DYEAR=1900
DGENRE=Blues
TTITLE0=01. Leo Sayer - When I Need You
TTITLE1=02. Corey Hart - I Can't Help Falling In Love
TTITLE2=03. Michael Johnson - I'll Always Love You
TTITLE3=04. Helen Reddy - If I Ever Had To Say Goodbye To You
TTITLE4=05. Crowded House - Don't Dream It's Over
TTITLE5=06. Carole King - Someone Who Believes In You
TTITLE6=07. Don McLean - Vincent
TTITLE7=08. Juice Newton - Angel Of The Morning
TTITLE8=09. Nielsen and Pearson - The Sun Ain't Gonna Shine Anymore
TTITLE9=10. Kenny Rogers - Lady
TTITLE10=11. Lee Greenwood - Just Like Me
TTITLE11=12. Crystal Gayle - Don't It Make My Brown Eyes Blue
EXTD=
EXTT0=
EXTT1=
EXTT2=
EXTT3=
EXTT4=
EXTT5=
EXTT6=
EXTT7=
EXTT8=
EXTT9=
EXTT10=
EXTT11=
PLAYORDER=
